# xmcd
#
# Track frame offsets:
#  150
#  14405
#  29573
#  39658
#  52689
#  69771
#  89210
#  105731
#  125076
#  145750
#  156598
#  171838
#  191081
#
# Disc length: 2814 seconds
#
# Revision: 0
# Processed by: cddbd v1.4PL0 Copyright (c) Steve Scherf et al.
# Submitted via: AltoMP3_Maker 3.0
#
DISCID=b90afc0d
DTITLE=Claude Martel - Souviens-toi
DYEAR=1900
DGENRE=
TTITLE0=Que Dieu protège notre amour
TTITLE1=Papillon
TTITLE2=Parle plus bas
TTITLE3=La danse de la limonade
TTITLE4=Juliana
TTITLE5=Mal d'amour
TTITLE6=L'hirondelle
TTITLE7=Tu t'en vas (Duo avec Line Gauthier)
TTITLE8=Salut les amoureux
TTITLE9=Belle dame
TTITLE10=Prière d'une mère (Interprétée par Line Gauthier)
TTITLE11=Un jour à la fois
TTITLE12=T'attendre
EXTD=
EXTT0=
EXTT1=
EXTT2=
EXTT3=
EXTT4=
EXTT5=
EXTT6=
EXTT7=
EXTT8=
EXTT9=
EXTT10=
EXTT11=
EXTT12=
PLAYORDER=
